<svg width="120" height="76" viewBox="0 0 120 76" fill="none" xmlns="http://www.w3.org/2000/svg">
<path d="M48.552 48.992C48.76 48.432 49.784 48.152 51.624 48.152C52.088 48.152 52.632 48.184 53.256 48.248C53.896 48.312 54.192 48.392 54.144 48.488L49.152 58.52V64.376C49.152 64.648 48.712 64.84 47.832 64.952C47.384 65.016 46.944 65.048 46.512 65.048C46.08 65.048 45.648 65.024 45.216 64.976C44.336 64.864 43.896 64.664 43.896 64.376V58.664L38.736 48.536C38.672 48.44 39 48.352 39.72 48.272C40.44 48.176 41.048 48.128 41.544 48.128C43.512 48.128 44.592 48.416 44.784 48.992L46.536 53.888L48.552 48.992ZM60.0296 64.664C60.0296 64.92 59.2696 65.048 57.7496 65.048C56.2136 65.048 55.4456 64.928 55.4456 64.688V49.04C55.4456 48.48 55.7416 48.2 56.3336 48.2H60.9176C65.1256 48.2 67.2296 49.84 67.2296 53.12C67.2296 54.112 67.0376 55.016 66.6536 55.832C66.2696 56.632 65.7256 57.272 65.0216 57.752L68.0456 62.792C67.9176 63.176 67.5016 63.616 66.7976 64.112C65.8376 64.8 65.0456 65.144 64.4216 65.144C63.7976 65.144 63.3336 64.92 63.0296 64.472L60.7736 59.216H60.0296V64.664ZM60.0296 52.448V56.048H60.1496C61.6696 56.048 62.4296 55.416 62.4296 54.152C62.4296 53.576 62.2776 53.152 61.9736 52.88C61.6856 52.592 61.2056 52.448 60.5336 52.448H60.0296Z" fill="#A84BB7"/>
<path d="M76.1582 14.2492C76.4055 14.4714 76.6502 14.6963 76.8922 14.9242C77.5358 15.5257 78.2323 16.064 78.9212 16.6134C79.0918 16.7511 79.2623 16.889 79.4329 17.0268C80.9491 18.2471 82.5141 19.396 84.0941 20.5337C84.2084 20.6163 84.3228 20.6989 84.4407 20.7841C85.2352 21.3578 86.0326 21.9275 86.8326 22.4938C87.0105 22.6197 87.0105 22.6197 87.1919 22.7481C89.2167 24.1769 91.2809 25.5395 93.3748 26.8665C93.5223 26.96 93.6698 27.0535 93.8218 27.1498C97.2407 29.3095 100.752 31.3091 104.329 33.1993C104.487 33.283 104.645 33.3667 104.807 33.453C108.366 35.3359 112.006 37.2327 115.957 38.1409C116.059 38.1644 116.161 38.188 116.266 38.2122C116.787 38.3328 117.309 38.4508 117.831 38.5657C118.023 38.6084 118.216 38.6511 118.414 38.6951C118.587 38.7329 118.761 38.7708 118.94 38.8098C119.332 38.9132 119.648 39.0335 120 39.2305C119.95 39.33 119.9 39.4295 119.848 39.532C119.488 39.6309 119.143 39.7081 118.777 39.7735C118.613 39.8031 118.613 39.8031 118.446 39.8332C117.271 40.0302 116.112 40.0545 114.922 40.0409C114.813 40.0403 114.704 40.0396 114.591 40.039C112.911 40.0272 111.289 39.9376 109.654 39.532C109.549 39.507 109.445 39.4819 109.337 39.4561C108.066 39.1463 106.83 38.7528 105.593 38.3328C103.723 37.6981 101.858 37.1902 99.917 36.818C99.7786 36.7897 99.6401 36.7614 99.4975 36.7323C98.2343 36.4943 96.9964 36.4754 95.714 36.4882C95.493 36.4894 95.272 36.4906 95.0509 36.4918C89.8854 36.4799 89.8854 36.4799 84.9724 37.847C78.4843 40.6027 70.4306 42.3147 63.3763 42.4446C63.2279 42.4477 63.0795 42.4509 62.9266 42.4542C62.4386 42.4642 61.9507 42.4731 61.4627 42.4817C61.294 42.4847 61.1254 42.4878 60.9517 42.4909C59.6894 42.5132 58.427 42.5315 57.1646 42.5477C56.9843 42.55 56.8041 42.5523 56.6183 42.5547C55.5479 42.5679 54.4776 42.5774 53.4071 42.5825C53.0725 42.5844 52.7378 42.587 52.4031 42.5904C48.9563 42.6239 45.6319 42.2845 42.2854 41.4545C41.099 41.1657 39.9076 40.9008 38.715 40.6384C38.3675 40.5618 38.0201 40.4845 37.6727 40.4072C33.7168 39.5308 30.0474 39.2995 26.0036 39.5038C25.8703 39.5105 25.737 39.5172 25.5996 39.5241C22.6217 39.6777 19.8468 40.0653 16.9594 40.8178C16.3 40.9888 15.6397 41.1373 14.9719 41.2723C13.4593 41.5789 11.9731 42.0052 10.6401 42.8015C10.3043 43 10.3043 43 10 43C10 42.9005 10 42.801 10 42.6984C10.1153 42.6356 10.2307 42.5728 10.3495 42.5081C14.2136 40.4024 18.0536 38.2585 21.8672 36.0641C22.0003 35.9876 22.0003 35.9876 22.1361 35.9095C25.8707 33.7621 29.602 31.6064 33.1259 29.1282C33.2411 29.0472 33.3563 28.9662 33.4749 28.8827C35.7801 27.2561 38.0424 25.5717 40.2766 23.8508C40.3601 23.7866 40.4435 23.7224 40.5294 23.6562C41.8771 22.6167 43.2053 21.5546 44.5284 20.4846C44.9495 20.1444 45.3714 19.805 45.7932 19.4657C46.1973 19.1406 46.6012 18.8152 47.005 18.4897C47.2467 18.2949 47.4886 18.1003 47.7305 17.9056C48.3752 17.3852 49.0145 16.8601 49.6447 16.3225C57.5374 9.61547 67.4742 7.21741 76.1582 14.2492Z" fill="#A84BB7"/>
<path d="M44.5663 15.5832C44.7209 15.6265 44.7209 15.6265 44.8785 15.6707C46.2529 16.0616 46.2529 16.0616 46.8479 16.3527C46.9869 16.6852 46.9869 16.6852 47 16.9684C46.8921 17.0609 46.8921 17.0609 46.7819 17.1554C46.2064 17.656 45.6568 18.1688 45.1272 18.7191C44.5158 19.3452 43.8677 19.9001 43.1891 20.45C42.7936 20.7733 42.4058 21.1032 42.0198 21.4379C41.0543 22.2746 40.0655 23.072 39.0505 23.8465C38.7756 24.0566 38.5017 24.2679 38.2279 24.4794C36.6203 25.7155 34.971 26.8877 33.3107 28.05C33.1519 28.1616 33.1519 28.1616 32.9899 28.2754C28.0247 31.7639 22.8941 34.9423 17.6125 37.914C16.5005 38.5399 15.3967 39.1787 14.2991 39.8301C14.1914 39.8939 14.0837 39.9576 13.9727 40.0232C13.8806 40.078 13.7885 40.1328 13.6937 40.1893C13.5918 40.2466 13.49 40.3039 13.3851 40.3629C13.2503 40.4445 13.1156 40.526 12.9767 40.6101C12.3377 40.882 11.8044 40.8979 11.1184 40.9034C10.9872 40.9062 10.856 40.9089 10.7207 40.9118C10.2938 40.9202 9.86691 40.9254 9.43993 40.9304C9.14516 40.9354 8.8504 40.9405 8.55564 40.9457C7.68113 40.9603 6.80662 40.9701 5.93204 40.9785C5.80524 40.9799 5.67845 40.9812 5.54781 40.9826C4.7791 40.9904 4.01045 40.9954 3.24171 40.9978C3.05261 40.9985 2.86351 40.9992 2.66868 41C1.76453 40.9983 0.893815 40.9652 0 40.8246C0.0752913 40.6723 0.0752913 40.6723 0.152104 40.5168C0.509462 40.3967 0.863748 40.2909 1.22633 40.1897C2.57787 39.7872 3.78484 39.195 5.01942 38.516C5.16843 38.4358 5.31745 38.3557 5.47097 38.2731C9.57754 35.9619 13.2615 32.7296 16.7872 29.6144C17.3387 29.1272 17.8951 28.6461 18.4521 28.1654C19.0622 27.6384 19.6649 27.1054 20.2583 26.559C20.8921 25.9771 21.5476 25.4288 22.2131 24.8846C22.6175 24.5483 23.0134 24.2047 23.4079 23.8567C24.6871 22.7307 26.0196 21.6873 27.3786 20.6623C27.4885 20.5787 27.5983 20.4951 27.7114 20.409C32.7128 16.6126 38.15 13.7133 44.5663 15.5832Z" fill="#A84BB7"/>
<path d="M39 0C41.4475 0.614259 42.8504 2.58088 44.266 4.36893C44.2756 4.21462 44.2853 4.06031 44.2953 3.90132C44.3087 3.69918 44.3222 3.49704 44.3358 3.2949C44.342 3.19315 44.3483 3.09141 44.3548 2.98657C44.4075 2.21746 44.4075 2.21746 44.5851 1.8932C44.6904 1.8932 44.7957 1.8932 44.9043 1.8932C45.7347 3.74494 46.298 5.63147 46.8191 7.57282C46.8746 7.77421 46.9301 7.97559 46.9856 8.17696C47.1843 8.92114 47.3202 9.57036 47.2979 10.3398C47.4032 10.3398 47.5085 10.3398 47.617 10.3398C47.6358 10.2429 47.6545 10.1459 47.6739 10.046C47.8654 9.06892 48.0731 8.09657 48.3052 7.12682C48.3351 6.99344 48.365 6.86006 48.3959 6.72264C48.8807 4.71235 50.0365 3.07955 51.9455 1.93871C52.6671 1.57505 53.1867 1.51947 54 1.60194C53.9235 2.45428 53.522 3.06627 53.0725 3.79551C52.588 4.60226 52.1655 5.35843 51.9056 6.25303C51.4163 7.88963 50.1582 9.14021 48.8936 10.3398C48.8074 10.4252 48.7212 10.5106 48.6324 10.5986C48.4149 10.7767 48.4149 10.7767 48.0957 10.7767C48.0957 12.1704 48.0957 13.5641 48.0957 15C47.7271 15 47.3585 15 46.9787 15C46.9781 14.8759 46.9774 14.7518 46.9767 14.6239C46.9724 14.161 46.9646 13.6984 46.9544 13.2356C46.9507 13.0358 46.9484 12.8359 46.9475 12.636C46.946 12.3479 46.9391 12.0597 46.932 11.7717C46.9295 11.5985 46.927 11.4254 46.9244 11.247C46.7899 10.6458 46.52 10.4472 46.0213 10.0485C45.8591 9.86666 45.7019 9.681 45.5513 9.49105C45.4693 9.38794 45.3874 9.28483 45.3029 9.1786C45.2174 9.0692 45.132 8.9598 45.0439 8.84709C44.9075 8.67342 44.9075 8.67342 44.7683 8.49624C43.9534 7.45055 43.184 6.38148 42.4319 5.29754C42.1622 4.90937 41.8908 4.52222 41.6193 4.13513C41.421 3.85205 41.2228 3.56894 41.0246 3.2858C40.9329 3.15481 40.8411 3.02383 40.7466 2.88887C40.2961 2.24292 39.8501 1.59453 39.412 0.941482C39.3328 0.823578 39.2536 0.705673 39.1719 0.584195C39 0.291262 39 0.291262 39 0Z" fill="#A84BB7"/>
</svg>
