<svg width="126" height="111" viewBox="0 0 126 111" fill="none" xmlns="http://www.w3.org/2000/svg">
<g filter="url(#filter0_d_63_182)">
<path d="M4 0C23.2539 4.21791 34.2896 17.722 45.4255 30C45.5016 28.9404 45.5776 27.8808 45.656 26.7891C45.762 25.401 45.8682 24.013 45.9747 22.625C46.0241 21.9263 46.0734 21.2277 46.1243 20.5078C46.5386 15.2266 46.5386 15.2266 47.9362 13C48.7647 13 49.5932 13 50.4468 13C56.9798 25.7153 61.4108 38.6694 65.5106 52C65.9467 53.3829 66.3831 54.7657 66.8199 56.1484C68.3832 61.2585 69.4519 65.7165 69.2766 71C70.1051 71 70.9336 71 71.7872 71C71.9348 70.3343 72.0823 69.6686 72.2344 68.9827C73.7409 62.2733 75.3754 55.5964 77.2008 48.9375C77.4362 48.0216 77.6717 47.1057 77.9143 46.1621C81.7282 32.3581 90.8208 21.1463 105.838 13.3125C111.514 10.8153 115.602 10.4337 122 11C121.399 16.8527 118.24 21.0551 114.703 26.0625C110.892 31.6022 107.568 36.7945 105.524 42.9375C101.675 54.1755 91.7777 62.7628 81.8298 71C81.1518 71.5865 80.4737 72.173 79.7752 72.7773C78.0638 74 78.0638 74 75.5532 74C75.5532 83.57 75.5532 93.14 75.5532 103C72.6534 103 69.7536 103 66.766 103C66.7608 102.148 66.7556 101.295 66.7503 100.417C66.7164 97.239 66.6547 94.0622 66.5744 90.8845C66.5454 89.5122 66.5273 88.1398 66.5205 86.7673C66.5088 84.7887 66.4539 82.8102 66.3982 80.832C66.3785 79.6433 66.3587 78.4545 66.3384 77.2297C65.2803 73.1014 63.1574 71.7375 59.234 69C57.9586 67.751 56.7216 66.4762 55.5367 65.1719C54.892 64.4639 54.2472 63.7558 53.583 63.0264C52.9105 62.2752 52.238 61.524 51.5452 60.75C50.4722 59.5575 50.4722 59.5575 49.3775 58.3408C42.9671 51.1604 36.9141 43.8195 30.9979 36.3765C28.8763 33.711 26.7411 31.0526 24.6049 28.3945C23.0452 26.4507 21.4858 24.5067 19.9269 22.5625C19.2053 21.6631 18.4836 20.7636 17.7402 19.8369C14.1962 15.4014 10.6874 10.9491 7.24127 6.46484C6.61797 5.65523 5.99466 4.84562 5.35247 4.01147C4 2 4 2 4 0Z" fill="url(#paint0_linear_63_182)"/>
</g>
<defs>
<filter id="filter0_d_63_182" x="0" y="0" width="126" height="111" filterUnits="userSpaceOnUse" color-interpolation-filters="sRGB">
<feFlood flood-opacity="0" result="BackgroundImageFix"/>
<feColorMatrix in="SourceAlpha" type="matrix" values="0 0 0 0 0 0 0 0 0 0 0 0 0 0 0 0 0 0 127 0" result="hardAlpha"/>
<feOffset dy="4"/>
<feGaussianBlur stdDeviation="2"/>
<feComposite in2="hardAlpha" operator="out"/>
<feColorMatrix type="matrix" values="0 0 0 0 0 0 0 0 0 0 0 0 0 0 0 0 0 0 0.25 0"/>
<feBlend mode="normal" in2="BackgroundImageFix" result="effect1_dropShadow_63_182"/>
<feBlend mode="normal" in="SourceGraphic" in2="effect1_dropShadow_63_182" result="shape"/>
</filter>
<linearGradient id="paint0_linear_63_182" x1="63" y1="0" x2="63" y2="103" gradientUnits="userSpaceOnUse">
<stop offset="0.255" stop-color="#157E15"/>
<stop offset="0.485" stop-color="#0D4B0D"/>
<stop offset="0.7425" stop-color="#083208"/>
<stop offset="1" stop-color="#041804"/>
</linearGradient>
</defs>
</svg>
